<?xml version="1.0" standalone="no"?>
<!DOCTYPE svg PUBLIC "-//W3C//DTD SVG 20010904//EN"
 "http://www.w3.org/TR/2001/REC-SVG-20010904/DTD/svg10.dtd">
<svg version="1.0" xmlns="http://www.w3.org/2000/svg"
 width="1218.000000pt" height="1218.000000pt" viewBox="0 0 1218.000000 1218.000000"
 preserveAspectRatio="xMidYMid meet">
<metadata>
Created by potrace 1.14, written by Peter Selinger 2001-2017
</metadata>
<g transform="translate(0.000000,1218.000000) scale(0.100000,-0.100000)"
fill="#000000" stroke="none">
<path d="M5910 8320 l0 -2330 55 0 55 0 0 2330 0 2330 -55 0 -55 0 0 -2330z"/>
<path d="M7145 10528 c-64 -35 -112 -118 -141 -243 -15 -64 -18 -117 -17 -270
1 -224 24 -415 84 -709 22 -109 39 -199 37 -200 -2 -2 -47 -18 -101 -37 -54
-19 -99 -39 -100 -44 -1 -5 39 -17 88 -27 50 -10 95 -20 100 -21 6 -2 -21 -14
-60 -26 -115 -38 -215 -89 -215 -110 0 -30 50 -41 154 -34 90 6 136 -3 136
-27 0 -5 -21 -23 -46 -40 -44 -31 -45 -32 -28 -51 10 -11 56 -38 104 -60 47
-23 96 -46 109 -52 14 -7 26 -17 28 -23 2 -6 -31 -40 -74 -75 l-78 -64 60 -6
c104 -11 114 -23 65 -74 -38 -39 -109 -202 -117 -267 -6 -46 -5 -48 18 -48 29
0 69 26 69 44 0 7 10 21 22 32 21 19 21 19 14 -6 -14 -52 -18 -146 -7 -173 23
-60 85 -42 130 38 25 44 95 115 114 115 3 0 -5 -25 -19 -55 -30 -64 -64 -218
-64 -289 l0 -48 30 6 c17 3 46 17 64 31 55 42 59 14 21 -144 -26 -107 -55
-159 -124 -225 -17 -17 -31 -36 -31 -44 0 -19 59 -9 123 22 l47 23 0 -27 c0
-59 -84 -142 -205 -203 -81 -40 -104 -62 -139 -133 -37 -74 -38 -98 -4 -102
20 -2 36 6 63 32 21 21 49 38 70 42 40 7 143 -2 180 -16 13 -5 53 -49 89 -98
36 -49 97 -119 136 -156 l71 -67 -30 -53 c-55 -95 -38 -120 59 -91 42 13 74
16 114 11 84 -10 87 -11 70 -51 -8 -19 -14 -44 -14 -55 0 -29 43 -26 99 7 36
21 62 28 123 31 l78 5 0 -37 c0 -35 1 -36 40 -36 23 0 76 13 118 30 115 44
178 53 332 47 198 -8 213 -14 339 -145 128 -131 175 -157 377 -208 290 -72
544 -100 843 -91 195 5 254 18 314 66 26 20 53 31 92 36 72 9 110 45 165 160
53 108 80 235 80 377 0 66 8 146 20 208 29 149 27 182 -14 227 -18 21 -42 58
-53 83 -11 25 -44 74 -75 110 -69 82 -78 99 -78 149 0 44 9 51 31 24 22 -26
106 -61 179 -74 64 -11 140 -6 140 9 0 4 -25 34 -56 66 -97 103 -99 111 -99
333 0 105 3 195 7 198 10 10 48 -18 69 -52 27 -43 58 -188 65 -310 7 -100 8
-103 31 -103 56 0 91 48 118 162 37 158 29 332 -21 429 l-24 49 27 1 c136 8
247 -53 273 -148 11 -45 21 -50 65 -33 32 12 32 11 -13 173 l-31 107 47 1 c56
1 94 11 99 25 2 5 -40 45 -93 89 -65 54 -94 83 -90 94 19 60 61 161 78 189 24
38 105 107 190 159 60 37 60 37 37 53 -69 46 -68 38 -22 136 82 174 144 345
148 409 4 79 10 102 57 215 57 138 78 221 88 350 6 72 19 149 36 205 39 131
40 146 11 173 -41 39 -92 44 -255 27 -81 -8 -169 -22 -197 -30 -27 -9 -216
-104 -420 -213 -203 -109 -371 -195 -373 -190 -5 12 50 86 130 173 112 124
109 118 62 110 -67 -12 -192 -85 -270 -158 -41 -38 -134 -133 -208 -212 -132
-139 -134 -142 -140 -113 -13 68 14 220 72 392 l56 168 -20 37 c-25 46 -63 61
-98 37 -22 -14 -26 -24 -26 -61 0 -95 -45 -178 -189 -345 -106 -124 -141 -192
-141 -277 0 -70 26 -162 66 -230 30 -51 43 -49 -160 -23 -204 26 -302 28 -411
6 -74 -14 -120 -16 -255 -10 -149 5 -181 3 -334 -21 -92 -14 -170 -24 -173
-21 -3 3 2 24 11 47 66 165 20 339 -128 485 -107 105 -265 179 -342 160 -23
-6 -26 -11 -20 -37 l6 -31 -48 43 c-54 47 -390 273 -563 377 -134 81 -209 111
-293 119 -78 6 -120 -8 -112 -40 10 -43 -6 -48 -63 -22 -29 14 -64 34 -78 45
-29 22 -58 25 -88 8z m415 -63 c62 -24 439 -258 595 -368 55 -39 148 -117 206
-174 106 -103 127 -115 169 -93 17 9 16 14 -13 85 -16 42 -27 78 -24 81 7 8
65 -26 135 -79 175 -132 249 -407 143 -526 -38 -42 -85 -165 -65 -169 36 -9
79 33 106 101 2 5 69 20 148 34 129 23 169 26 363 24 162 -1 241 3 310 15 99
17 174 15 367 -12 148 -20 211 -34 238 -51 16 -10 33 -12 55 -7 18 4 39 7 49
5 9 -1 19 3 23 9 3 5 -1 10 -9 10 -19 0 -102 152 -127 232 -11 33 -18 83 -18
111 2 52 2 52 9 -15 11 -90 26 -133 62 -174 17 -19 36 -53 43 -77 12 -42 13
-42 59 -41 32 0 46 -4 46 -13 0 -7 -7 -13 -15 -13 -8 0 -15 -9 -15 -20 0 -11
4 -20 9 -20 4 0 4 -20 -2 -45 -6 -25 -8 -48 -4 -51 10 -11 27 7 27 28 0 20 1
21 20 3 12 -11 20 -31 20 -52 0 -38 17 -45 25 -10 6 23 7 23 54 8 45 -15 47
-17 25 -26 -23 -10 -23 -10 31 -80 30 -38 66 -91 80 -116 40 -74 61 -269 30
-286 -13 -8 -13 -12 0 -37 11 -21 15 -63 15 -156 0 -117 2 -131 25 -172 14
-25 34 -81 45 -126 l20 -82 -55 -307 c-31 -170 -60 -316 -64 -327 -6 -15 -40
13 -209 174 -328 312 -392 416 -392 641 0 57 -4 82 -16 93 -18 19 -20 19 -45
6 -17 -10 -19 -22 -19 -108 1 -262 62 -355 520 -782 91 -85 171 -165 179 -180
7 -14 31 -46 53 -72 21 -27 37 -48 35 -48 -2 0 -28 13 -58 30 -47 26 -64 30
-135 30 -97 0 -121 -11 -291 -131 -109 -78 -112 -81 -119 -125 -21 -143 59
-281 202 -349 42 -19 109 -58 150 -86 65 -43 74 -53 68 -72 -27 -85 -24 -120
10 -115 17 2 22 12 27 46 3 23 10 47 15 52 5 5 52 21 104 36 52 14 106 36 119
48 l24 21 -7 -80 c-10 -123 -47 -240 -112 -349 -29 -48 -32 -50 -103 -68 -49
-12 -84 -27 -107 -47 -43 -39 -90 -46 -294 -45 -246 1 -479 34 -747 104 -175
45 -211 67 -343 200 -140 142 -137 141 -407 143 -200 2 -279 -10 -363 -53 -54
-27 -62 -26 -58 13 l3 32 -105 -2 c-58 -1 -124 -6 -148 -11 -37 -9 -43 -8 -38
5 20 51 18 62 -11 69 -37 10 -189 11 -231 2 -31 -7 -33 -6 -26 14 4 13 19 43
35 67 l28 45 -83 81 c-46 44 -107 115 -135 158 -39 59 -62 83 -89 94 -49 21
-174 28 -246 14 -33 -6 -61 -9 -64 -6 -2 2 4 19 15 37 21 37 72 77 161 127
115 64 181 150 182 236 0 31 9 51 38 87 49 62 76 81 141 103 38 12 68 32 100
65 25 26 78 68 117 93 39 26 79 56 89 67 23 25 31 25 38 0 3 -12 -10 -44 -34
-85 -22 -36 -38 -69 -35 -74 3 -4 -11 -23 -30 -42 -20 -19 -40 -42 -45 -51
-12 -22 -3 -19 114 35 48 22 89 38 92 35 3 -3 1 -27 -6 -52 -15 -61 -92 -146
-162 -180 -29 -14 -122 -43 -207 -64 -86 -22 -183 -53 -216 -70 -91 -46 -181
-142 -133 -142 6 0 34 23 62 51 29 27 79 63 112 79 118 55 299 85 320 51 2 -5
-23 -19 -58 -31 -34 -13 -66 -28 -72 -33 -16 -15 49 0 117 27 60 24 62 25 130
9 67 -15 95 -13 163 12 14 5 11 -1 -10 -19 -16 -14 -48 -31 -70 -38 -22 -6
-47 -20 -55 -30 -11 -13 -35 -20 -93 -24 -44 -4 -74 -11 -69 -16 24 -24 198
-19 302 9 25 6 25 6 6 -15 -34 -38 -7 -37 32 1 32 31 82 50 82 31 0 -33 -69
-81 -161 -112 -92 -32 -136 -34 -249 -13 -251 48 -440 66 -454 43 -6 -10 88
-38 274 -83 238 -57 428 -43 604 46 36 18 66 30 66 27 0 -4 -19 -29 -41 -55
-73 -85 -206 -135 -388 -145 -75 -5 -116 -11 -118 -19 -3 -7 11 -15 33 -19 36
-7 187 1 249 12 27 5 25 2 -17 -25 -51 -33 -64 -57 -25 -46 12 4 56 29 97 55
41 26 91 53 110 59 19 6 80 36 135 66 54 30 111 55 125 55 l25 0 -30 -25 c-16
-14 -65 -47 -109 -75 l-78 -49 53 -3 54 -3 -54 -19 c-30 -10 -95 -22 -145 -25
-82 -7 -100 -12 -174 -51 -45 -24 -96 -58 -113 -76 l-32 -33 64 15 c100 24
163 31 247 26 47 -2 105 2 148 11 70 15 225 71 254 91 12 9 12 7 -1 -14 -17
-27 -36 -38 -172 -99 -88 -40 -152 -79 -144 -88 3 -2 49 9 103 26 98 31 144
36 202 25 31 -6 30 -6 -29 -36 -32 -16 -59 -33 -59 -38 0 -4 27 1 61 11 33 10
87 19 118 19 102 0 158 34 126 76 -8 11 -15 28 -15 39 0 23 -49 110 -79 142
-12 13 -17 25 -11 28 16 10 12 25 -5 19 -9 -4 -15 0 -15 9 0 8 -17 32 -37 54
-72 74 -73 62 9 160 40 48 83 102 96 120 14 19 28 30 37 27 15 -6 85 42 85 57
0 16 -26 9 -45 -11 -10 -11 -22 -20 -27 -20 -6 0 17 30 51 68 33 37 55 69 49
71 -14 5 -72 -58 -181 -194 -44 -55 -97 -121 -119 -147 l-39 -47 -45 16 c-43
15 -46 17 -40 45 5 24 2 31 -14 35 -18 5 -18 7 -5 26 20 29 19 37 -5 37 -10 0
-27 -11 -37 -24 l-18 -24 -42 30 c-56 38 -58 76 -8 151 38 56 42 67 23 67 -7
0 -26 -21 -42 -46 -27 -43 -30 -45 -43 -28 -7 10 -11 25 -7 34 13 31 9 45 -12
45 -41 1 -73 52 -44 70 20 13 10 27 -15 21 -33 -8 -33 9 0 74 20 39 22 50 11
50 -8 0 -20 -8 -25 -17 -8 -14 -9 -10 -5 17 5 40 3 45 -48 83 -34 25 -38 33
-38 70 0 23 4 59 9 80 5 21 5 39 0 43 -5 3 -9 12 -9 20 0 8 -9 23 -20 34 -32
32 -20 121 27 191 19 29 23 43 15 48 -8 5 1 18 29 40 29 24 38 36 30 44 -7 7
-16 5 -31 -8 -25 -23 -27 -4 -5 39 9 17 12 32 6 35 -19 12 16 86 94 196 30 44
39 65 38 94 -2 44 24 75 94 111 l41 21 -5 62 c-15 186 -18 202 -33 202 -8 0
-14 -8 -14 -18 11 -138 14 -257 7 -257 -51 0 -71 101 -80 413 -4 161 -9 217
-18 217 -39 0 -16 -533 26 -611 7 -13 -7 -32 -61 -88 -88 -90 -110 -92 -199
-25 -67 50 -114 104 -136 158 -23 54 -19 58 32 26 25 -16 62 -33 81 -36 38 -7
82 8 82 29 0 15 -83 96 -164 162 -59 48 -107 111 -99 131 3 8 0 14 -6 14 -6 0
-11 18 -11 41 l0 40 43 -35 c81 -66 246 -124 285 -100 30 20 65 105 70 174 12
181 -131 363 -573 725 -88 72 -185 132 -240 146 -22 6 -47 15 -55 20 -111 67
-116 69 -166 69 -29 0 -56 -5 -61 -12 -34 -42 -19 -218 28 -336 79 -200 120
-247 261 -302 l68 -26 -39 -22 c-70 -39 -214 -22 -281 34 -16 14 -30 23 -30
20 0 -15 97 -183 123 -212 16 -19 26 -38 23 -43 -4 -5 21 -44 55 -87 34 -42
55 -73 48 -69 -8 5 -31 19 -52 33 -22 13 -41 21 -44 19 -2 -3 2 -20 10 -39 19
-45 93 -108 189 -159 43 -23 85 -50 93 -60 14 -14 7 -13 -43 7 -76 30 -157 43
-150 24 2 -8 29 -19 59 -25 30 -6 76 -21 103 -34 45 -22 47 -25 31 -38 -11 -7
-39 -13 -64 -13 -25 -1 -64 -7 -86 -15 -22 -8 -57 -15 -77 -15 -20 0 -40 -4
-43 -10 -4 -6 9 -10 31 -10 35 0 36 -1 22 -17 -18 -20 -42 -67 -52 -100 l-7
-21 60 19 c75 23 226 35 263 20 20 -8 29 -19 34 -48 8 -48 45 -88 101 -109 36
-14 63 -16 150 -10 66 4 115 12 129 20 12 8 24 12 28 9 14 -14 5 -51 -18 -72
-40 -37 -110 -54 -236 -55 -93 -1 -121 -5 -143 -19 -45 -29 -94 -106 -134
-209 -37 -96 -39 -98 -71 -98 -41 0 -151 -55 -220 -109 l-52 -41 0 29 c0 55
13 92 41 118 51 49 7 58 -79 18 -30 -14 -56 -25 -58 -25 -8 0 8 54 31 105 12
28 35 61 50 75 15 14 33 37 41 51 18 35 3 48 -73 63 l-57 12 65 48 c35 26 67
54 71 61 12 20 -14 42 -82 70 -65 26 -170 84 -170 95 0 3 20 18 45 33 25 16
45 33 45 37 0 5 -12 18 -27 30 -26 21 -35 22 -124 16 -106 -7 -160 4 -140 28
12 14 59 34 192 81 78 27 118 49 108 59 -3 3 -41 10 -85 16 -43 6 -86 13 -94
16 -9 3 23 20 73 39 49 18 91 35 93 38 2 2 -7 51 -20 108 -67 283 -109 594
-109 809 0 217 26 361 76 423 l22 27 59 -30 c40 -20 73 -30 105 -30 55 0 112
26 126 57 11 25 14 25 105 -12z m4513 -163 c27 -26 26 -46 -6 -108 -21 -40
-47 -171 -47 -236 0 -79 -42 -249 -94 -380 -34 -86 -48 -139 -55 -200 -7 -66
-21 -115 -69 -234 -33 -84 -74 -179 -91 -212 l-30 -60 36 -33 c35 -30 36 -33
19 -43 -57 -34 -176 -128 -196 -156 -22 -31 -113 -230 -108 -235 2 -2 37 -31
78 -65 41 -34 77 -66 78 -71 2 -5 -18 -9 -45 -9 -72 0 -78 -7 -60 -70 15 -52
15 -52 -6 -45 -53 17 -204 17 -260 1 -64 -19 -75 -30 -53 -54 44 -50 70 -188
59 -316 l-7 -81 -16 80 c-9 44 -22 97 -29 117 -14 42 -66 93 -132 127 -41 22
-48 23 -74 10 -35 -17 -41 -36 -56 -193 -20 -214 -2 -316 71 -399 17 -20 28
-37 24 -37 -25 1 -91 51 -119 90 -36 52 -82 65 -116 34 -10 -9 -19 -13 -19 -9
0 5 25 143 55 307 l55 299 -20 82 c-11 45 -31 104 -45 130 -22 43 -25 62 -25
154 l0 105 49 -36 c65 -48 182 -102 258 -120 87 -20 87 -4 0 23 -95 31 -191
80 -255 130 l-52 41 0 76 0 75 48 -39 c70 -59 236 -162 260 -162 11 0 27 9 35
20 12 17 31 22 121 29 58 4 109 10 112 13 3 3 -28 10 -68 15 l-73 8 26 18 c15
10 58 21 100 25 l74 8 -78 12 c-43 7 -108 12 -145 13 l-67 1 42 19 c24 11 80
27 124 36 69 14 79 18 65 29 -15 11 -15 12 0 18 8 3 25 6 37 6 21 1 20 2 -6
24 l-29 23 42 17 c30 12 56 15 93 10 44 -5 50 -4 39 7 -7 8 -36 21 -64 29 -28
9 -53 21 -55 27 -3 7 17 22 42 34 53 25 82 63 121 159 36 88 34 108 -11 146
l-38 32 24 16 c14 8 61 21 104 27 44 6 84 15 90 20 15 15 -15 36 -79 54 -32 9
-74 25 -93 35 l-34 18 58 28 c37 17 52 29 41 31 -9 2 -44 -10 -77 -26 -49 -25
-73 -31 -127 -31 l-66 0 31 42 c17 23 31 47 31 53 0 5 20 23 46 38 25 15 42
31 39 37 -3 5 -45 -15 -93 -44 -55 -34 -90 -50 -94 -43 -4 7 -35 -2 -88 -27
-44 -21 -83 -36 -86 -33 -10 10 240 252 389 375 81 68 147 129 147 136 0 19
-22 36 -45 36 -51 0 -508 -420 -616 -565 -42 -58 -45 -60 -69 -48 -36 18 -76
6 -163 -52 l-27 -17 29 64 c16 36 39 81 51 101 12 20 18 37 13 37 -14 0 -108
-57 -123 -75 -8 -9 -19 -27 -25 -39 -17 -33 -39 -25 -54 20 -14 40 -14 41 22
94 21 30 37 58 37 62 0 21 -28 3 -53 -32 -16 -22 -35 -40 -42 -40 -8 0 -17
-12 -20 -27 -9 -39 -47 -123 -56 -123 -11 0 -29 68 -28 105 2 73 22 102 209
300 202 214 307 309 177 161 -42 -49 -80 -100 -83 -113 -7 -28 11 -53 39 -53
12 0 185 87 386 194 201 107 391 207 421 222 64 32 193 54 312 51 65 -2 80 -6
101 -25z m-1623 -241 c-5 -11 -19 -57 -30 -103 -37 -155 -36 -365 2 -362 23 2
7 -40 -17 -44 -44 -9 -87 74 -101 198 -4 33 -9 60 -13 60 -3 0 -21 -9 -39 -20
l-33 -20 17 32 c20 39 55 84 148 196 70 84 85 97 66 63z m924 -463 c-27 -49
-57 -78 -80 -78 -25 0 -25 0 -7 24 10 13 33 33 53 44 42 25 43 26 34 10z
m-446 -207 c-16 -32 -32 -78 -35 -102 -3 -24 -10 -47 -15 -50 -5 -3 2 -19 16
-34 14 -15 26 -31 26 -34 0 -4 -14 -11 -32 -16 -17 -6 -40 -22 -51 -36 -18
-26 -19 -28 -1 -64 10 -22 43 -57 77 -84 58 -45 59 -46 31 -48 -81 -7 -134
-25 -158 -53 l-24 -29 -7 45 c-10 66 -35 120 -93 196 l-50 67 31 10 c18 5 65
18 105 27 39 10 72 21 72 25 0 10 -84 19 -177 19 -69 0 -109 8 -131 25 -1 1 0
9 4 18 4 13 11 14 32 6 38 -15 107 5 188 53 82 49 207 117 215 118 3 0 -7 -26
-23 -59z m-457 -82 c-26 -22 -35 -20 -25 5 3 9 16 16 28 16 21 -1 21 -1 -3
-21z m-2861 -158 c0 -18 -28 6 -84 74 l-41 50 62 -55 c35 -30 63 -61 63 -69z
m250 -861 c0 -18 -71 -152 -132 -250 l-60 -95 44 41 c23 23 59 53 78 67 31 22
248 147 257 147 9 0 0 -30 -22 -78 -25 -54 -45 -68 -164 -113 -17 -7 -21 -13
-13 -21 7 -7 27 -3 67 16 32 14 59 26 61 26 2 0 -10 -28 -26 -62 -17 -35 -30
-76 -30 -93 0 -20 -9 -37 -27 -53 -26 -22 -27 -23 -5 -19 31 7 29 -16 -11 -88
-24 -43 -51 -73 -96 -107 -107 -80 -120 -92 -157 -140 -19 -26 -45 -50 -57
-54 -12 -3 -33 -16 -46 -28 -15 -13 -11 -3 12 24 42 54 49 70 76 185 41 172
25 201 -92 164 l-28 -8 6 47 c19 136 58 250 104 302 l22 25 -5 -27 c-3 -16 -9
-40 -12 -55 -5 -20 9 -5 47 47 29 41 83 105 119 143 62 63 90 81 90 57z m260
-444 c0 -7 -19 -28 -42 -47 l-42 -34 25 35 c14 19 29 43 32 53 7 20 27 14 27
-7z m2677 -718 c67 -9 83 -16 111 -44 20 -20 32 -42 32 -58 0 -14 -3 -26 -6
-26 -4 0 -26 18 -50 40 -43 40 -44 40 -121 40 -109 0 -144 -13 -215 -76 -33
-30 -71 -57 -84 -60 -72 -18 -86 34 -25 95 50 50 87 69 165 86 78 17 98 17
193 3z m-2147 -152 c0 -2 -8 -10 -17 -17 -16 -13 -17 -12 -4 4 13 16 21 21 21
13z"/>
<path d="M9176 9149 c-84 -45 -148 -111 -128 -131 7 -7 30 9 70 45 33 31 79
65 101 77 23 11 41 23 41 25 0 12 -49 3 -84 -16z"/>
<path d="M9198 8984 c-14 -13 -9 -22 15 -30 12 -3 47 -16 77 -28 l55 -21 -49
-5 c-27 -3 -51 -10 -53 -17 -2 -6 16 -23 41 -38 51 -30 59 -39 20 -25 -14 6
-32 10 -40 10 -20 0 -18 -20 4 -26 130 -41 256 -195 337 -410 35 -92 39 -99
54 -90 6 4 1 31 -13 74 -46 134 -131 278 -215 361 -29 30 -36 40 -18 28 29
-19 68 -20 74 -2 2 6 -26 28 -62 49 -36 21 -64 40 -62 42 2 2 26 -3 53 -11
102 -31 127 -8 47 43 -107 69 -244 118 -265 96z"/>
<path d="M10374 8837 c-75 -56 -170 -158 -213 -230 -39 -67 -44 -92 -17 -92
13 0 32 22 60 69 48 82 159 204 222 243 52 33 63 53 30 53 -13 0 -50 -19 -82
-43z"/>
<path d="M10491 8809 c-54 -36 -70 -59 -40 -59 11 0 139 89 139 96 0 15 -47
-2 -99 -37z"/>
<path d="M9007 8540 c-63 -12 -54 -20 25 -20 42 0 95 -7 118 -15 23 -8 46 -12
51 -9 37 23 -119 59 -194 44z"/>
<path d="M9456 8542 c-3 -5 12 -49 33 -98 21 -49 48 -122 59 -163 24 -82 28
-89 43 -74 14 14 -28 155 -78 266 -34 73 -45 87 -57 69z"/>
<path d="M10308 8480 c-58 -60 -67 -65 -48 -29 8 13 7 19 0 19 -6 0 -3 11 6
25 14 22 14 25 1 25 -28 0 -137 -173 -137 -217 0 -32 22 -7 55 60 19 39 33 63
30 52 -3 -10 -9 -38 -12 -62 -8 -62 17 -57 48 9 13 29 52 81 85 115 38 38 55
63 46 63 -9 0 -42 -27 -74 -60z"/>
<path d="M8898 8474 c-26 -8 -50 -19 -53 -24 -9 -14 4 -13 60 6 36 13 68 15
131 11 46 -3 84 -2 84 2 0 24 -151 27 -222 5z"/>
<path d="M10463 8410 c-47 -34 -90 -97 -76 -111 6 -6 21 8 40 35 18 25 50 55
72 68 23 13 41 26 41 31 0 16 -37 5 -77 -23z"/>
<path d="M10567 8282 c-10 -10 -17 -24 -17 -30 0 -7 -13 -12 -29 -12 -36 0
-89 -42 -107 -87 -20 -46 -17 -130 5 -180 19 -41 94 -99 159 -124 43 -17 50 7
7 25 l-38 16 34 23 c19 12 44 41 56 62 45 79 73 140 73 160 0 23 -48 110 -79
143 -26 27 -43 28 -64 4z m-8 -98 c82 -58 57 -244 -33 -244 -33 0 -54 26 -26
33 11 3 27 22 36 43 13 31 14 45 5 76 -13 42 -28 51 -27 16 1 -31 -38 -37 -54
-8 -14 27 -5 54 27 80 31 24 42 25 72 4z"/>
<path d="M9157 8265 c-130 -46 -180 -239 -93 -360 12 -16 27 -43 34 -58 7 -17
27 -34 47 -43 42 -17 162 -17 185 1 8 6 33 22 54 35 44 26 42 19 -12 -48 -34
-43 -36 -66 -4 -46 9 6 36 40 59 75 23 35 55 80 72 99 31 37 29 59 -7 86 -11
8 -12 15 -3 32 15 27 14 32 -4 32 -9 0 -20 -12 -25 -26 -17 -43 -40 -13 -40
51 0 52 -26 105 -52 105 -6 0 -25 13 -44 29 -29 26 -90 52 -119 51 -5 -1 -27
-7 -48 -15z m120 -55 c36 -22 69 -80 79 -137 13 -84 -42 -182 -115 -204 -73
-22 -149 38 -170 133 -34 149 93 277 206 208z"/>
<path d="M9213 8134 c0 -46 -51 -60 -78 -21 -18 26 -28 16 -46 -47 -14 -53 -3
-103 31 -138 34 -34 58 -35 95 -6 55 43 72 144 35 206 -24 39 -37 41 -37 6z"/>
<path d="M9605 7945 c-27 -25 -43 -45 -36 -45 13 0 93 66 99 82 8 19 -16 4
-63 -37z"/>
<path d="M9613 7846 c-124 -66 -312 -188 -297 -193 7 -2 58 26 115 63 56 37
150 93 208 125 132 74 112 77 -26 5z"/>
<path d="M10435 7870 c-7 -11 129 -80 157 -80 35 0 17 16 -62 53 -89 41 -86
41 -95 27z"/>
<path d="M9420 7684 c-126 -88 -324 -175 -462 -204 -32 -6 -58 -16 -58 -21 0
-14 23 -11 112 11 129 34 281 99 385 167 l26 18 -18 -30 c-11 -17 -39 -52 -65
-80 l-45 -50 28 -3 c32 -4 33 -5 7 -40 -19 -26 -50 -106 -64 -165 -5 -20 -2
-29 10 -34 22 -8 40 14 53 71 18 74 58 149 113 211 38 42 45 55 31 55 -10 0
-36 -14 -58 -31 l-40 -31 43 40 c32 30 39 41 27 44 -14 2 -10 12 19 50 35 45
45 69 29 67 -5 0 -37 -20 -73 -45z"/>
<path d="M9203 7660 c-68 -32 -123 -63 -123 -69 0 -18 11 -14 136 45 135 64
131 61 118 73 -5 5 -60 -15 -131 -49z"/>
<path d="M8776 7664 c-45 -16 -109 -54 -102 -61 5 -5 156 65 156 73 0 6 -12 4
-54 -12z"/>
<path d="M8784 7599 c-77 -49 -148 -114 -199 -181 -46 -62 -95 -148 -95 -167
0 -25 28 4 52 52 57 116 163 226 288 300 32 19 39 27 24 27 -11 0 -42 -14 -70
-31z"/>
<path d="M10096 7196 c-40 -49 -45 -66 -17 -66 12 0 34 20 55 49 42 56 43 61
17 61 -11 0 -36 -19 -55 -44z"/>
<path d="M10240 7197 c-75 -38 -147 -242 -85 -242 16 0 21 11 32 62 14 73 32
110 67 144 25 23 34 49 19 49 -5 0 -19 -6 -33 -13z"/>
<path d="M9553 6867 c-22 -23 -47 -53 -57 -67 l-16 -24 0 36 c0 19 7 41 15 48
22 18 18 30 -10 30 -14 0 -25 -6 -25 -13 0 -24 -55 -68 -75 -61 -16 6 -17 3
-12 -22 3 -18 0 -37 -9 -48 -8 -11 -14 -26 -14 -33 0 -25 20 -13 39 25 11 21
26 44 35 51 13 11 16 9 21 -16 4 -15 8 -34 11 -40 4 -16 24 -17 24 -2 0 11 54
82 103 135 44 48 16 49 -30 1z"/>
<path d="M9252 6755 c-17 -14 -37 -23 -45 -19 -10 3 -30 -8 -53 -29 -30 -27
-34 -35 -21 -40 9 -3 27 3 41 14 l26 20 -25 -53 c-27 -58 -30 -74 -15 -83 19
-12 46 14 57 57 7 23 30 66 52 95 36 47 41 63 20 63 -4 0 -21 -11 -37 -25z"/>
<path d="M9222 6544 c-35 -72 -8 -75 28 -4 24 46 24 50 7 50 -7 0 -23 -21 -35
-46z"/>
<path d="M9314 6467 c-55 -47 6 -91 128 -92 76 -1 76 -2 127 -47 27 -25 65
-52 83 -61 53 -25 186 -38 432 -42 169 -3 244 -9 280 -20 59 -18 91 -19 191
-4 l77 12 21 43 c11 24 17 47 13 51 -15 15 -161 6 -271 -16 -145 -30 -283 -36
-489 -22 -199 14 -220 21 -319 110 -120 108 -215 138 -273 88z m138 -42 c22
-17 22 -17 -31 -10 -60 7 -71 11 -71 27 0 16 74 3 102 -17z"/>
<path d="M10517 6153 c-4 -3 -37 -9 -75 -13 -49 -5 -62 -9 -48 -15 11 -5 42
-4 74 3 56 12 69 18 60 27 -2 3 -8 2 -11 -2z"/>
<path d="M3615 10333 c-72 -37 -115 -97 -226 -308 -40 -77 -77 -143 -82 -146
-5 -4 -68 -21 -141 -39 -96 -24 -153 -33 -211 -32 -87 0 -337 31 -765 93 -497
72 -443 58 -564 141 -211 146 -333 218 -369 218 -45 0 -67 -17 -67 -52 0 -30
-1 -30 -38 -25 -119 18 -179 19 -210 3 -47 -24 -43 -56 13 -102 69 -56 78 -44
-148 -184 -139 -86 -215 -157 -386 -359 -88 -103 -179 -204 -202 -224 -45 -39
-90 -53 -136 -43 -16 4 -42 2 -58 -4 -26 -10 -27 -13 -22 -56 10 -92 71 -125
272 -149 77 -9 141 -18 143 -20 2 -2 -4 -17 -12 -34 -9 -16 -16 -41 -16 -56 0
-23 4 -25 39 -25 22 0 43 5 46 10 12 19 61 39 75 30 12 -7 11 -12 -3 -28 -25
-28 -57 -116 -57 -157 0 -32 3 -35 28 -35 16 0 37 7 48 15 22 16 50 19 59 6 3
-5 -6 -26 -19 -46 -53 -78 -60 -148 -14 -153 l26 -3 -15 -37 c-18 -43 -12
-130 12 -188 14 -34 17 -36 54 -32 l40 3 12 -48 c6 -27 27 -71 45 -99 19 -27
34 -54 34 -59 0 -5 16 -47 35 -93 53 -128 48 -151 -55 -251 -76 -74 -128 -150
-260 -380 -140 -243 -142 -250 -148 -420 -5 -176 14 -298 63 -400 57 -119 180
-222 305 -255 24 -7 60 -25 78 -41 78 -69 174 -103 407 -144 256 -46 273 -46
424 -20 175 31 185 34 446 145 262 112 502 232 642 322 71 45 122 70 167 82
67 16 190 68 315 130 l71 36 24 -37 c46 -70 59 -144 53 -281 -5 -104 -3 -124
9 -129 27 -10 61 13 68 47 8 41 55 85 104 97 74 19 102 -12 102 -115 0 -77 8
-101 35 -108 35 -9 58 8 143 106 103 118 142 184 149 252 l5 53 89 -4 c94 -3
139 3 139 19 0 6 -17 27 -39 49 -43 43 -81 131 -81 187 0 28 3 35 15 30 8 -3
18 1 22 8 5 7 32 16 61 18 29 3 57 9 63 15 5 5 -8 47 -35 108 -24 55 -53 126
-64 158 l-22 57 35 0 c29 0 37 5 46 28 18 46 5 217 -22 297 l-24 71 45 -1 c38
0 45 3 45 19 0 15 -15 26 -58 42 -120 47 -110 64 40 64 58 0 105 4 108 10 4 6
-9 32 -28 58 -32 43 -77 124 -77 137 0 3 10 5 23 5 12 0 29 4 37 10 12 7 11
12 -5 31 l-20 22 28 -7 c39 -9 67 1 67 25 0 23 -16 57 -77 157 -25 41 -42 76
-39 80 13 12 95 -38 110 -66 24 -47 39 -158 32 -243 -5 -63 -3 -80 10 -93 43
-44 123 4 171 102 27 54 28 64 28 196 l0 139 29 29 c25 25 28 35 24 71 l-5 42
98 49 97 49 29 -18 c29 -20 146 -54 274 -82 67 -14 82 -14 120 -2 80 25 69 50
-85 188 -27 24 -55 69 -95 155 -68 142 -106 192 -418 544 -120 136 -222 252
-226 258 -4 7 10 22 33 38 65 43 66 102 1 135 -20 11 -63 27 -96 36 -33 10
-62 19 -64 21 -2 2 11 26 28 54 49 80 46 84 -51 74 -103 -11 -234 -12 -271 -1
-43 12 -31 35 43 84 36 24 66 50 68 57 4 16 -134 76 -257 112 -99 29 -219 32
-266 7z m231 -58 c48 -14 109 -35 136 -47 l48 -20 -39 -28 c-54 -39 -83 -80
-78 -108 3 -18 1 -21 -14 -17 -10 3 -45 -5 -79 -18 -33 -14 -60 -21 -60 -17 0
4 13 25 29 47 16 23 31 49 33 59 3 17 -3 19 -72 15 -41 -2 -88 -10 -105 -18
-41 -21 -195 -174 -195 -194 0 -9 -7 -19 -15 -23 -8 -3 -15 -3 -15 0 0 10 82
167 130 247 71 121 99 147 160 147 26 0 87 -11 136 -25z m-2681 -171 c33 -8
73 -14 88 -11 22 3 36 -5 70 -38 41 -41 44 -42 126 -49 70 -6 91 -11 122 -35
l38 -27 -67 -44 c-83 -55 -277 -247 -360 -359 -35 -46 -85 -129 -112 -185 -45
-94 -90 -228 -90 -270 0 -10 -32 -52 -70 -94 -116 -125 -117 -131 -105 -408
l8 -160 -36 4 c-19 2 -44 -1 -55 -7 -17 -9 -21 -7 -26 12 -12 45 -5 78 31 143
35 64 36 67 17 81 -11 8 -29 11 -47 7 -28 -6 -28 -5 -16 18 6 12 20 35 30 50
42 59 11 108 -68 108 -24 0 -43 2 -43 4 0 22 26 67 42 72 11 3 26 20 33 38 17
40 99 117 155 146 31 16 41 26 37 40 -3 12 3 21 19 29 30 13 30 22 -1 53 l-25
25 -57 -20 c-42 -14 -74 -18 -115 -14 -52 5 -58 3 -58 -14 0 -22 54 -59 87
-59 16 0 21 -4 17 -15 -5 -11 1 -15 21 -15 26 0 25 -2 -23 -40 -28 -22 -52
-46 -54 -52 -3 -9 -14 -7 -40 5 -20 9 -55 17 -77 17 -38 0 -40 1 -29 20 9 15
10 22 1 31 -12 12 -129 31 -263 44 -82 8 -116 18 -143 43 -16 15 -14 17 36 32
100 31 148 74 347 310 153 182 231 255 367 339 224 140 228 143 231 180 3 24
-3 40 -19 57 -21 23 -22 24 -3 24 11 0 47 -7 79 -16z m2994 -89 l113 6 -27
-46 c-14 -26 -24 -52 -22 -59 3 -7 34 -19 69 -25 69 -14 141 -42 153 -60 9
-16 -21 -49 -67 -72 -21 -11 -38 -24 -38 -30 0 -5 51 -67 113 -137 l112 -127
-80 65 c-44 36 -104 81 -132 100 -29 19 -53 40 -53 45 -1 12 -115 115 -127
115 -5 0 -22 14 -38 30 -36 38 -121 65 -173 55 -47 -8 -35 6 39 44 37 19 54
34 54 47 0 16 -9 19 -61 22 -58 3 -61 4 -57 26 5 22 5 22 56 9 38 -11 83 -13
166 -8z m-2451 -140 c46 -31 77 -32 105 -1 l23 24 264 -39 c763 -112 888 -121
1057 -76 119 32 125 32 95 11 -22 -15 -23 -21 -17 -83 12 -118 35 -251 50
-289 23 -54 41 -69 90 -77 60 -9 151 -70 259 -177 90 -89 112 -101 123 -72 4
11 -15 37 -58 81 l-64 66 44 -24 c70 -39 118 -86 145 -144 29 -60 69 -217 87
-334 l11 -78 80 -11 c44 -7 83 -14 87 -17 5 -2 11 -19 15 -37 3 -17 20 -53 37
-79 25 -39 28 -52 20 -68 -18 -33 -13 -54 33 -127 24 -38 50 -84 59 -100 l16
-30 -29 4 c-38 6 -56 27 -89 109 -22 53 -33 68 -49 67 -12 0 -18 5 -15 12 6
18 -32 27 -57 14 -34 -18 -42 -55 -30 -132 24 -159 87 -289 157 -324 l42 -22
-57 -4 c-31 -3 -64 -8 -73 -12 -12 -5 -25 6 -49 43 -19 31 -39 51 -50 51 -19
0 -50 -25 -50 -39 0 -11 57 -90 91 -126 26 -28 89 -151 104 -203 l7 -23 -43
21 c-23 12 -70 25 -103 27 -68 6 -84 15 -102 58 -10 25 -10 31 3 40 13 10 12
18 -11 63 -33 65 -34 133 -5 328 l20 142 -21 137 c-11 75 -29 153 -39 173 -28
54 -75 96 -100 89 -15 -4 -28 4 -47 26 -14 18 -24 25 -21 16 8 -26 20 -179 14
-179 -3 0 -16 4 -29 9 -13 4 -35 11 -51 15 l-27 6 59 -117 c83 -167 106 -260
85 -341 -6 -21 -10 -17 -40 35 -18 32 -41 66 -52 76 -24 22 -157 34 -202 18
-29 -10 -37 -8 -66 14 -34 26 -64 33 -64 15 0 -5 3 -10 8 -10 4 0 29 -20 56
-45 l48 -44 -38 10 c-70 19 -212 99 -249 140 -19 21 -38 39 -43 39 -4 0 -5 52
-3 116 l3 116 -37 75 c-36 73 -37 77 -19 90 10 7 36 13 59 13 l40 0 18 -102
c9 -56 19 -103 21 -105 2 -2 10 -1 18 2 12 5 13 14 1 68 -17 85 -16 94 8 64
11 -15 24 -49 28 -77 9 -56 14 -65 31 -55 22 14 -18 181 -67 280 -53 107 -76
136 -101 130 -14 -3 -33 2 -50 13 -58 41 -123 57 -228 57 -77 0 -100 3 -97 13
9 22 -17 13 -76 -27 -92 -63 -182 -181 -217 -284 l-18 -52 -13 44 c-16 55 -4
114 42 206 19 38 33 71 30 73 -17 17 -88 -107 -101 -176 -4 -18 -14 -37 -24
-42 -22 -12 -67 -113 -80 -180 -5 -28 -12 -56 -15 -61 -9 -14 -25 -11 -25 5 0
7 -7 19 -15 26 -8 7 -19 27 -23 44 -8 27 -13 31 -40 29 -34 -3 -49 20 -37 56
3 11 2 22 -4 25 -20 12 -41 -8 -47 -43 -7 -44 -30 -76 -63 -86 -23 -7 -24 -6
-17 26 18 93 19 109 3 109 -17 0 -21 -13 -37 -125 -8 -57 -25 -108 -57 -178
-33 -71 -43 -101 -34 -106 6 -4 9 -15 5 -24 -11 -31 33 -19 61 16 15 17 24 24
21 14 -19 -59 -19 -67 5 -67 13 0 34 13 49 32 l27 33 8 -35 c5 -23 31 -58 80
-110 41 -41 97 -101 126 -132 28 -32 57 -58 63 -58 7 0 37 -21 67 -47 55 -49
77 -64 115 -84 12 -6 24 -23 27 -38 7 -34 67 -103 123 -142 48 -33 141 -69
162 -62 22 8 13 21 -20 28 -77 17 -185 92 -221 154 -27 47 -2 40 73 -19 68
-55 137 -94 187 -104 51 -12 47 11 -5 28 -74 25 -192 108 -192 136 0 5 -17 14
-38 19 -42 12 -132 67 -132 82 0 14 7 11 52 -21 22 -16 46 -30 52 -30 17 0
146 -66 184 -95 75 -55 222 -90 230 -55 2 12 -17 22 -70 38 -40 12 -80 26 -88
31 -28 19 -3 21 51 5 75 -23 200 -14 302 21 42 15 77 31 77 36 0 12 2 12 -65
-11 -68 -23 -86 -25 -60 -7 16 12 9 15 -56 20 -75 6 -139 23 -139 37 0 4 19 4
43 -1 70 -14 168 -10 250 10 43 10 81 21 84 25 15 15 -9 16 -58 2 -75 -21
-174 -28 -234 -17 -44 8 -37 9 63 10 122 1 174 17 207 63 l15 23 -121 5 c-152
6 -168 22 -39 39 95 12 140 27 140 46 0 15 -21 35 -38 35 -7 0 -20 7 -28 15
-8 8 -21 12 -29 9 -15 -6 -69 9 -123 34 -35 15 -73 78 -86 139 -12 54 12 50
70 -13 37 -40 54 -52 54 -40 0 15 9 10 43 -21 77 -71 252 -152 297 -138 31 10
120 -117 173 -246 5 -11 9 -10 21 4 14 18 15 18 18 -5 2 -13 0 -52 -5 -88 -4
-36 -5 -78 -2 -93 5 -28 4 -28 -45 16 -68 61 -168 94 -208 68 -19 -12 4 -27
51 -34 53 -8 102 -41 149 -100 85 -108 153 -290 165 -440 3 -43 10 -80 14 -83
20 -12 49 17 49 49 0 26 4 32 23 33 12 1 39 5 59 9 32 6 43 4 73 -19 20 -15
58 -59 85 -98 l50 -72 -27 -28 c-24 -25 -28 -37 -28 -87 1 -47 8 -73 36 -131
l36 -71 -26 6 c-14 3 -37 14 -51 24 -41 29 -61 33 -86 16 -20 -13 -23 -22 -22
-89 0 -64 -5 -84 -31 -138 -18 -35 -51 -85 -75 -113 l-43 -50 -8 45 c-11 65
-32 100 -70 116 -44 18 -79 18 -144 -2 -29 -8 -54 -14 -56 -12 -1 2 -6 32 -9
68 -7 62 -7 64 11 49 30 -27 60 -39 120 -50 31 -6 67 -18 80 -26 17 -11 27
-13 35 -5 14 14 -30 36 -102 51 -70 15 -115 42 -141 86 -12 19 -25 35 -30 35
-5 0 -17 17 -28 39 -21 40 -73 91 -94 91 -7 0 -91 -38 -187 -85 -96 -46 -204
-92 -240 -101 -79 -20 -113 -36 -220 -108 -115 -77 -272 -155 -570 -284 -298
-128 -292 -126 -435 -152 -142 -26 -178 -25 -349 5 -276 49 -339 70 -410 135
-31 28 -61 45 -100 55 -82 22 -133 50 -192 109 -93 94 -140 224 -151 421 -11
202 4 246 171 530 126 213 159 260 247 351 43 44 81 92 84 106 8 30 -16 122
-47 183 -20 38 -21 51 -15 275 4 147 2 279 -5 352 -14 150 -4 180 95 284 69
74 70 75 98 183 46 176 104 286 235 441 115 138 308 310 346 310 5 0 26 -11
46 -25z m3005 -577 c168 -193 222 -263 267 -349 42 -81 54 -126 41 -148 -20
-32 -167 117 -201 202 -16 42 -36 69 -74 101 -49 43 -50 45 -33 63 35 39 19
81 -74 201 -27 34 -48 62 -46 62 2 0 56 -60 120 -132z m-2728 -897 c-6 -13 -8
-12 -16 7 -13 34 -37 38 -65 11 l-26 -24 18 38 c10 20 24 37 31 37 7 0 13 11
13 26 0 14 5 35 12 47 11 20 14 14 26 -52 7 -40 10 -81 7 -90z m2163 -291 c2
-54 -9 -41 -39 47 -26 76 -24 84 9 37 19 -26 28 -53 30 -84z m-560 -155 c-3
-3 -9 2 -12 12 -6 14 -5 15 5 6 7 -7 10 -15 7 -18z m180 -399 c39 -20 84 -23
213 -11 121 10 145 4 151 -34 l4 -28 -34 14 c-50 21 -252 12 -307 -13 l-40
-18 57 -5 c31 -4 63 -12 69 -18 13 -13 17 -11 -54 -33 -44 -14 -41 -25 8 -34
41 -8 49 -17 32 -39 -18 -23 -117 -12 -117 14 0 33 -59 202 -89 257 l-29 52
51 -44 c29 -24 67 -51 85 -60z m296 -273 c19 -54 11 -51 -15 7 -10 22 -14 40
-9 40 4 0 15 -21 24 -47z m-260 21 c13 -5 12 -10 -10 -26 -29 -23 -39 -19 -29
11 7 22 14 25 39 15z m224 -102 c15 -15 40 -49 55 -76 18 -32 32 -46 42 -42 8
3 17 1 20 -4 4 -6 -7 -10 -24 -10 -23 0 -34 7 -45 28 -8 16 -33 52 -56 80 -43
55 -37 71 8 24z"/>
<path d="M906 9861 c-13 -20 3 -28 64 -35 61 -7 75 -26 20 -26 -33 0 -87 -41
-76 -58 4 -7 32 -12 64 -13 l57 0 -35 -13 c-101 -38 -270 -139 -270 -162 0
-24 35 -15 101 26 93 59 175 95 252 113 38 8 71 18 75 21 9 10 -16 30 -51 42
l-32 11 29 14 c46 22 43 37 -10 61 -56 24 -177 37 -188 19z"/>
<path d="M761 9428 c-25 -9 -28 -33 -5 -42 9 -3 43 -6 77 -6 121 -1 -51 -57
-211 -69 -126 -10 -178 -30 -149 -58 11 -11 20 -12 33 -5 11 5 55 13 99 17
115 10 210 33 293 70 71 33 96 65 51 65 -11 0 -18 4 -14 9 3 5 0 13 -6 16 -15
10 -144 12 -168 3z"/>
<path d="M2421 9629 c-13 -5 -36 -18 -52 -30 -24 -17 -29 -18 -29 -5 0 30 -32
16 -80 -36 -49 -53 -52 -77 -9 -62 13 4 30 7 36 6 7 -2 36 15 65 36 29 22 68
47 86 56 17 9 32 23 32 31 0 17 -14 18 -49 4z"/>
<path d="M2633 9373 c-31 -12 -9 -23 35 -18 29 4 58 2 77 -6 29 -12 28 -13
-41 -20 -122 -12 -224 -50 -224 -84 0 -23 23 -22 70 2 64 33 155 46 237 33 56
-9 69 -8 81 4 14 13 12 16 -14 28 -16 7 -33 19 -38 26 -19 32 -136 54 -183 35z"/>
<path d="M3200 9167 c0 -7 5 -18 12 -25 18 -18 -3 -14 -24 5 -11 10 -22 13
-28 7 -6 -6 17 -33 61 -73 50 -45 74 -60 81 -53 8 8 3 25 -17 59 l-28 48 50
-48 c28 -27 63 -66 79 -88 16 -21 35 -39 42 -39 30 0 6 37 -80 125 -73 75 -99
95 -120 95 -16 0 -28 -5 -28 -13z"/>
<path d="M2067 9133 c-41 -65 -77 -129 -77 -136 0 -21 25 0 53 46 77 121 80
127 63 127 -9 0 -26 -17 -39 -37z"/>
<path d="M1971 9106 c-36 -60 -95 -205 -87 -213 10 -11 36 7 36 24 0 14 39 98
108 236 2 4 -3 7 -10 7 -8 0 -29 -24 -47 -54z"/>
<path d="M3391 9141 c-11 -7 -8 -17 16 -52 17 -24 40 -63 52 -86 12 -24 25
-43 30 -43 21 0 18 18 -14 79 -48 90 -67 113 -84 102z"/>
<path d="M1873 9032 c-15 -10 -83 -148 -83 -169 0 -27 20 -1 68 89 38 70 43
98 15 80z"/>
<path d="M1116 8972 c-3 -5 6 -24 21 -43 14 -19 38 -62 54 -97 29 -62 57 -77
44 -23 -16 63 -105 186 -119 163z"/>
<path d="M1855 8797 c-25 -60 -29 -87 -12 -87 8 0 21 18 29 43 8 23 19 50 23
60 5 12 3 17 -9 17 -10 0 -23 -14 -31 -33z"/>
<path d="M1024 8741 c-50 -31 -78 -101 -79 -196 0 -93 15 -143 57 -191 23 -26
38 -34 64 -34 19 0 34 -3 34 -7 -1 -5 -14 -24 -30 -43 -32 -36 -39 -56 -16
-43 23 13 113 127 113 143 0 8 8 42 18 74 33 112 0 255 -69 297 -17 10 -38 19
-46 19 -8 0 -29 -9 -46 -19z m25 -134 c-15 -12 -32 -31 -38 -42 -9 -18 -10
-18 -11 -2 0 21 43 67 62 67 7 0 1 -10 -13 -23z"/>
<path d="M1083 8188 c-6 -7 -27 -46 -48 -86 -40 -77 -39 -97 6 -90 19 2 34 22
67 86 24 45 40 87 37 92 -9 14 -51 12 -62 -2z"/>
<path d="M3322 7943 c-58 -34 -74 -54 -54 -67 13 -8 132 65 132 80 0 26 -18
22 -78 -13z"/>
<path d="M2094 7772 c4 -7 13 -12 20 -12 6 0 50 -18 96 -40 113 -55 210 -152
267 -267 23 -44 44 -100 48 -122 8 -45 35 -58 35 -16 0 37 -43 147 -79 204
-51 79 -163 178 -246 218 -77 36 -154 55 -141 35z"/>
<path d="M1110 7607 c-16 -9 -24 -21 -23 -35 2 -13 -4 -23 -15 -26 -19 -7 -36
-37 -84 -150 -30 -75 -28 -90 17 -84 23 3 31 13 57 76 21 50 35 72 47 72 23 0
51 31 51 57 0 12 7 24 16 27 8 3 12 11 9 16 -4 6 -1 17 5 25 27 32 -30 48 -80
22z"/>
<path d="M3440 7607 c0 -8 9 -22 20 -32 21 -19 44 -88 54 -165 l6 -45 -24 53
c-16 32 -35 57 -51 64 -24 11 -28 9 -50 -18 -18 -22 -21 -33 -13 -48 16 -29
-3 -39 -48 -27 -22 6 -53 11 -70 11 -18 0 -57 12 -88 26 -54 25 -102 29 -100
9 1 -5 17 -13 35 -16 54 -8 63 -18 38 -38 -31 -25 -19 -46 44 -76 30 -14 76
-44 102 -67 45 -39 47 -43 41 -82 -21 -149 -20 -179 11 -246 17 -36 49 -84 74
-109 47 -47 121 -101 138 -101 23 0 9 20 -31 49 -51 35 -134 118 -126 126 3 3
29 -10 58 -30 52 -35 80 -44 80 -25 0 5 -12 16 -27 24 l-28 15 40 -6 c26 -3
53 1 75 11 19 9 25 13 13 10 -36 -9 -60 4 -95 49 -18 23 -23 34 -12 25 11 -10
29 -18 39 -18 17 0 16 3 -6 26 l-24 27 30 -7 c17 -3 62 -9 102 -12 58 -6 77
-4 98 10 29 19 36 62 8 51 -94 -36 -159 -26 -225 33 -38 35 -40 38 -35 85 3
32 10 53 21 59 13 7 15 20 10 66 l-5 57 19 -53 c30 -81 97 -142 157 -142 36 0
27 22 -12 32 -41 11 -79 57 -98 120 -17 59 -20 134 -5 143 15 9 12 25 -5 25
-9 0 -19 17 -26 45 -15 58 -63 125 -89 125 -11 0 -20 -6 -20 -13z"/>
<path d="M2486 7571 c-7 -10 75 -201 87 -201 21 0 14 35 -24 118 -40 88 -51
103 -63 83z"/>
<path d="M1339 7429 c-15 -6 -32 -23 -39 -39 -7 -16 -18 -35 -26 -41 -22 -18
-17 -26 26 -50 42 -24 44 -27 32 -45 -10 -15 -387 -38 -427 -26 -16 5 -65 28
-108 51 -43 22 -88 41 -101 41 -27 0 -50 -24 -106 -110 l-42 -65 4 -130 c5
-165 14 -184 151 -327 l104 -108 51 0 52 0 0 -47 c1 -27 7 -66 15 -88 8 -22
15 -41 15 -42 0 -2 -21 -3 -46 -3 -32 0 -44 -4 -42 -12 3 -9 43 -15 129 -19
78 -4 150 -14 195 -27 39 -11 154 -35 255 -52 230 -40 301 -38 404 9 59 27 83
33 150 34 79 2 81 3 188 66 59 35 106 68 104 74 -2 6 -15 15 -30 20 -23 7 -39
2 -105 -39 -141 -86 -140 -86 -210 -79 -59 5 -69 3 -151 -35 -67 -31 -100 -40
-140 -40 -62 0 -375 53 -473 80 -37 10 -92 22 -122 25 l-56 7 -15 51 c-8 28
-15 62 -15 77 l0 26 134 10 c118 9 139 14 182 39 76 44 171 147 208 224 30 64
31 70 31 202 0 99 -4 140 -13 152 -8 9 -11 21 -7 28 4 6 -14 33 -43 62 -39 40
-49 56 -42 67 13 21 12 30 -3 30 -13 0 -43 -40 -39 -52 1 -5 -5 -8 -13 -8 -19
0 -19 3 5 50 20 40 26 71 13 69 -5 0 -20 -5 -34 -10z m91 -154 c13 -14 21 -27
18 -30 -2 -3 -17 9 -33 25 -16 17 -24 30 -19 30 6 0 21 -11 34 -25z m-609 -52
l94 -48 218 3 217 2 11 -24 c15 -31 4 -72 -21 -86 -10 -5 -83 -17 -162 -26
-169 -19 -186 -16 -307 55 -46 27 -113 57 -150 67 -36 10 -68 19 -70 21 -2 1
4 21 14 43 24 52 38 52 156 -7z"/>
<path d="M2370 7359 c0 -6 5 -19 10 -29 8 -15 6 -24 -10 -40 -11 -11 -23 -20
-28 -20 -10 0 -8 -280 3 -304 7 -16 6 -17 -12 -8 -33 18 -35 0 -4 -32 40 -43
71 -106 79 -163 4 -26 12 -47 17 -46 20 5 16 73 -9 135 -13 35 -29 81 -35 103
-16 61 -25 178 -16 221 l7 39 29 -33 c16 -18 29 -40 29 -50 0 -24 55 -106 83
-125 40 -26 50 -7 14 28 -43 42 -69 95 -55 112 7 9 6 14 -6 19 -10 4 -16 18
-16 36 l0 30 34 -21 c64 -40 79 -19 16 24 -22 15 -40 36 -40 45 0 10 -8 20
-19 23 -10 2 -24 18 -32 36 -13 29 -39 43 -39 20z m50 -115 c0 -23 -4 -34 -12
-32 -33 11 -36 68 -3 68 11 0 15 -10 15 -36z"/>
<path d="M2620 6990 c-13 -9 -11 -13 10 -30 29 -22 39 -24 74 -10 33 12 33 24
1 38 -31 15 -65 15 -85 2z"/>
<path d="M2545 6970 c-7 -11 90 -90 111 -90 26 0 14 17 -41 59 -59 45 -61 46
-70 31z"/>
<path d="M2919 6935 c-3 -2 2 -34 10 -70 10 -43 20 -65 29 -65 12 0 13 10 9
43 -10 73 -30 111 -48 92z"/>
<path d="M2825 6920 c-4 -6 -2 -25 4 -43 5 -17 13 -56 16 -85 5 -33 11 -52 19
-49 14 5 13 89 -3 145 -12 41 -24 52 -36 32z"/>
<path d="M2330 6756 c0 -8 4 -17 9 -20 5 -4 15 -29 22 -56 12 -48 30 -61 37
-27 5 24 -38 117 -54 117 -8 0 -14 -6 -14 -14z"/>
<path d="M951 6316 c-10 -12 -8 -17 10 -26 28 -15 132 -9 154 10 26 22 2 32
-47 20 -33 -9 -51 -9 -66 -1 -27 15 -37 14 -51 -3z"/>
<path d="M7304 5120 c-223 -40 -442 -177 -569 -355 -59 -82 -120 -212 -146
-310 -31 -116 -31 -346 0 -460 43 -162 125 -299 247 -416 86 -81 143 -121 247
-169 115 -53 193 -71 342 -77 272 -11 481 65 668 246 122 117 212 269 253 426
26 99 26 351 0 450 -41 156 -106 274 -215 388 -128 133 -261 214 -426 258 -91
24 -315 34 -401 19z m389 -197 c123 -43 189 -85 288 -183 73 -72 93 -99 132
-180 242 -503 -101 -1060 -651 -1060 -195 0 -346 59 -484 188 -128 121 -190
228 -222 384 -81 392 148 764 535 868 115 31 285 24 402 -17z"/>
<path d="M9808 5120 c-117 -20 -235 -107 -292 -215 -30 -58 -31 -65 -31 -180
0 -112 2 -124 29 -180 41 -84 125 -167 311 -308 325 -247 408 -368 361 -528
-49 -171 -255 -263 -421 -190 -59 26 -146 109 -197 188 -24 37 -45 60 -52 56
-6 -4 -39 -24 -73 -46 l-63 -39 37 -56 c142 -224 319 -317 552 -291 206 23
382 191 410 392 13 93 -1 175 -46 267 -49 102 -180 232 -378 374 -220 159
-269 211 -295 318 -24 93 24 193 113 240 32 17 60 22 112 23 99 0 164 -33 252
-130 l67 -73 68 55 68 55 -22 32 c-13 17 -52 60 -88 96 -121 120 -263 167
-422 140z"/>
<path d="M8784 5039 c3 -17 6 -89 6 -160 l0 -129 50 0 c45 0 50 -2 50 -22 0
-37 -27 -140 -49 -188 -11 -25 -21 -49 -21 -55 0 -10 79 -60 85 -53 12 13 47
95 65 153 19 60 23 99 28 278 l4 207 -112 0 -112 0 6 -31z"/>
<path d="M5224 4968 c3 -50 6 -437 6 -860 l0 -768 85 0 85 0 2 399 3 400 373
-395 373 -394 116 0 115 0 -48 53 c-27 29 -224 239 -439 466 -214 227 -390
417 -390 422 0 4 171 169 380 365 209 195 391 367 405 380 l25 24 -118 0 -117
0 -337 -319 -338 -319 -3 319 -2 319 -92 0 -91 0 7 -92z"/>
<path d="M1557 4510 c-4 -299 -7 -687 -7 -862 l0 -318 273 0 c149 0 301 5 337
10 95 15 214 76 284 147 100 101 143 219 133 371 -10 164 -96 287 -256 365
l-87 42 53 39 c61 45 114 119 138 194 27 81 18 230 -18 304 -38 78 -95 139
-165 176 -97 52 -161 62 -433 69 l-246 6 -6 -543z m462 359 c137 -22 207 -74
237 -175 18 -64 14 -114 -17 -184 -56 -127 -175 -179 -406 -180 l-113 0 0 268
c0 148 3 272 7 275 10 11 221 8 292 -4z m85 -734 c132 -27 216 -87 267 -190
28 -58 31 -71 27 -137 -4 -81 -28 -140 -81 -196 -83 -87 -175 -112 -424 -112
l-173 0 0 323 c0 178 3 327 8 331 11 12 296 -3 376 -19z"/>
<path d="M3173 4208 c-216 -464 -395 -851 -399 -860 -6 -16 3 -18 89 -18 l94
0 134 285 133 285 368 0 369 0 136 -280 136 -280 93 0 94 0 -13 27 c-6 15
-188 399 -402 853 -353 745 -393 825 -415 828 -24 2 -44 -39 -417 -840z m561
175 c76 -159 140 -293 143 -300 4 -10 -61 -13 -281 -15 -186 -2 -286 1 -286 7
0 16 272 595 280 595 4 0 69 -129 144 -287z"/>
<path d="M4696 5043 l-49 -4 6 -292 c4 -161 9 -512 12 -782 3 -269 8 -523 11
-562 l6 -73 85 0 85 0 -6 188 c-3 103 -8 378 -11 612 -3 234 -8 536 -11 673
l-7 247 -36 -2 c-20 -1 -58 -3 -85 -5z"/>
</g>
</svg>
